<svg width="320" height="226" viewBox="0 0 320 226" fill="none" xmlns="http://www.w3.org/2000/svg">
  <path d="M73 83C116.5 55.5 127 59 170.5 59C209.139 59 223.15 39.2744 264 34C293.242 30.2244 320 41 320 41V225.999H0V83C0 83 29.5 110.5 73 83Z" fill="url(#paint0_linear_567:985)"/>
  <path d="M22.3881 208.614L23.5294 208.639C23.9996 204.826 24.8386 200.62 26.2637 196.23C31.6445 179.636 29.5238 177.424 38.1716 167.169C46.8194 156.914 47.9698 135.274 47.9698 135.274C47.9698 135.274 52.6112 110.765 48.8309 99.8472C45.0546 88.9238 45.0041 78.0885 35.4937 66.4144C35.4937 66.4144 33.2539 81.6884 30.7548 88.5942C28.2516 95.5052 25.8756 102.106 27.2003 118.854C28.5204 135.602 29.5632 137.018 29.851 141.36C30.1389 145.701 29.0741 163.948 29.9328 166.98C30.7921 170.017 23.9119 190.755 23.2233 199.718C23.0156 202.417 22.688 205.482 22.3881 208.614Z" fill="#215E4B"/>
  <path d="M26.2218 204.997C27.4618 202.327 29.5971 199.695 33.255 198.171C42.8268 194.181 49.2144 194.417 53.8572 184.423C58.4994 174.424 58.8369 160.625 60.4281 157.797C60.4281 157.797 56.387 157.029 52.152 164.175C47.9169 171.321 45.0343 176.641 42.5841 180.797C40.1385 184.953 36.7824 183.694 33.8303 186.829C31.3557 189.453 28.9788 195.637 28.0567 198.783C27.7589 199.806 27.3314 200.785 26.7861 201.698C26.2875 202.529 25.6973 203.538 25.342 204.261C25.2627 204.423 25.1841 204.665 25.1004 204.979L26.2218 204.997Z" fill="#3C8F7C"/>
  <path d="M11.6688 205.24C10.8001 202.503 9.06076 199.697 5.70564 197.776C-3.06926 192.755 -9.28578 192.218 -12.5421 181.972C-15.7985 171.726 -14.4061 158.318 -15.5944 155.39C-15.5944 155.39 -11.5841 155.134 -8.36819 162.565C-5.15224 169.997 -3.02061 175.501 -1.16914 179.818C0.682341 184.135 4.08864 183.326 6.5598 186.716C8.63201 189.555 10.1624 195.832 10.6657 198.99C10.8301 200.016 11.1152 201.018 11.5366 201.968C11.9187 202.834 12.362 203.882 12.619 204.626C12.6732 204.789 12.7241 205.039 12.7634 205.347L11.6688 205.24Z" fill="#3C8F7C"/>
  <path d="M-9.2663 141.859C-10.4908 153.748 -2.84857 152.995 -2.72213 160.584C-2.59569 168.173 7.04007 181.239 11.4244 190.473C13.7046 195.276 14.4151 202.554 14.5708 208.433L18.2725 208.52C17.2029 193.621 11.3923 183.138 7.97463 174.76C3.57357 163.978 2.99163 159.087 7.16052 150.826C11.3294 142.565 6.02694 120.848 11.9005 111.355C17.7787 101.861 15.2556 86.6934 14.0964 80.8614C12.9419 75.0288 14.4665 71.1191 15.7791 65.0282C17.0917 58.9374 14.8452 49.9984 14.8452 49.9984C14.4508 57.5735 8.4006 67.8092 4.04245 74.3648C-0.315688 80.9204 -8.68455 98.8396 -7.95336 107.062C-7.22217 115.285 -7.7019 115.891 -7.7019 115.891C-10.9221 126.808 -8.04245 129.966 -9.2663 141.859Z" fill="#215E4B"/>
  <path d="M7.23182 147.181C6.79854 158.628 15.7072 163.167 15.3975 169.504C15.0878 175.841 16.9445 182.697 18.53 187.84C19.5315 191.095 18.717 200.079 18.3191 208.522L20.8214 208.577C21.6025 202.388 22.5131 193.449 22.3819 189.476C22.2037 184.054 24.7961 179.78 25.3343 170.348C25.8778 160.92 28.1018 152.457 24.1962 140.446C20.2906 128.435 21.4136 114.223 4.16759 100.67C4.16759 100.67 0.717397 114.521 2.86398 122.156C5.01526 129.789 7.66978 135.734 7.23182 147.181Z" fill="#3C8F7C"/>
  <path d="M7.23199 147.182C6.79871 158.629 15.7074 163.168 15.3977 169.505C15.088 175.842 16.9447 182.699 18.5301 187.841C19.5317 191.097 18.7172 200.081 18.3193 208.524L19.3557 208.548C19.5401 206.785 19.7037 205.679 19.7037 205.679L20.7404 184.342C20.7404 184.342 20.1129 167.609 18.5784 153.955C17.0438 140.3 4.16835 100.676 4.16835 100.676C4.16835 100.676 0.71816 114.527 2.86475 122.162C5.01542 129.791 7.66995 135.735 7.23199 147.182Z" fill="#327F6B"/>
  <path d="M20.5825 199.678L18.9063 199.641L-3.49344 199.128C-5.14096 199.092 -6.39162 200.597 -6.04849 202.202L1.82951 239.237C2.07679 240.39 3.0833 241.224 4.26269 241.248L17.884 241.56L19.5603 241.597L33.1817 241.909C34.3617 241.939 35.4087 241.151 35.711 240.013L45.3852 203.381C45.806 201.792 44.6258 200.232 42.9829 200.195L20.5825 199.678Z" fill="white"/>
  <path d="M276.805 162.578C276.645 162.479 276.493 162.362 276.361 162.23C272.034 157.934 235.709 121.863 234.566 119.842C233.536 118.018 222.775 80.2181 222.775 80.2181L241.538 81.2381L250.263 116.265C251.382 117.802 273.097 145.567 273.097 145.567C273.097 145.567 276.942 150.766 279.399 153.694C280.31 154.014 281.175 154.305 281.897 154.531C283.513 154.926 285.006 155.048 286.295 155.109C287.92 155.184 291.142 155.748 291.86 156.077C292.691 156.458 294.382 157.304 295.388 157.821C296.394 158.338 297.604 158.912 298.104 159.25C298.411 159.457 299.215 159.626 299.8 159.729C300.669 159.885 300.906 161.027 300.159 161.492C299.455 161.934 298.275 161.76 297.542 161.647C295.473 161.332 292.564 159.697 292.531 160.011C292.497 160.326 296.22 164.566 296.617 165.078C297.013 165.591 301.312 170.54 301.827 171.776C302.342 173.013 301.657 173.53 300.943 173.234C300.329 172.98 293.877 166.573 293.877 166.573C293.877 166.573 293.05 165.76 293.012 166.376C292.97 166.991 298.818 172.815 299.526 173.845C300.235 174.874 300.221 175.894 299.044 175.805C297.608 175.697 291.756 169.102 291.756 169.102C291.756 169.102 291.009 168.289 290.792 168.712C290.575 169.135 295.634 174.009 295.87 174.672C296.111 175.335 295.695 176.181 294.637 175.88C293.39 175.527 288.213 169.591 288.213 169.591C288.213 169.591 287.693 169.252 287.665 169.605C287.637 169.957 291.652 174.418 291.694 175.231C291.732 175.913 291.118 175.955 291.118 175.955C289.833 176.331 286.531 171.457 284.344 169.699C282.157 167.941 280.537 164.947 277.703 163.132C277.528 163.024 277.084 162.752 276.805 162.578Z" fill="#F8A492"/>
  <path d="M229.118 111.128L251.381 104.472C251.381 104.472 247.97 85.3369 244.938 77.7458C236.468 56.5472 220.502 61.257 218.489 65.6706C213.992 75.5508 229.118 111.128 229.118 111.128Z" fill="white"/>
  <path d="M240.746 84.3062C241.209 87.5213 247.076 176.147 247.076 176.147C206.901 195.691 187.345 178.393 187.345 178.393C187.345 178.393 188.658 117.025 187.085 108.673C186.041 103.145 184.742 66.4261 188.299 65.3967C192.862 64.0759 198.096 62.6752 203.797 62.0782C208.663 61.5706 227.577 61.2745 230.959 62.4167C230.959 62.4167 238.805 70.788 240.746 84.3062Z" fill="white"/>
  <path d="M329.155 122.645L225.373 111.172L217.615 181.062L321.397 192.536L329.155 122.645Z" fill="#F7CC7F"/>
  <path opacity="0.6" d="M262.085 115.232L225.367 111.173L217.61 181.064L254.327 185.123L262.085 115.232Z" fill="#ED9B8E"/>
  <path d="M305.636 120.015L283.467 117.572L282.432 126.873L304.601 129.317L305.636 120.015Z" fill="#EFEFB4"/>
  <path d="M245.324 154.896C245.324 154.896 247.167 173.416 247.167 173.693C247.167 203.648 253.114 262.163 251.985 267.799C249.226 281.538 219.528 351.611 219.528 351.611L203.477 349.693L224.394 265.792L216.699 232.02L205.806 165.265L245.324 154.896Z" fill="#B31E1E"/>
  <path d="M209.223 43.1831L206.342 62.1631C206.342 62.1631 216.876 84.7624 223.163 82.8023C228.439 81.1572 225.194 61.1619 225.194 61.1619C225.194 61.1619 222.317 50.4263 223.182 45.0491C224.046 39.6719 209.223 43.1831 209.223 43.1831Z" fill="#F7A491"/>
  <path d="M223.176 45.049C224.04 39.6765 209.222 43.1829 209.222 43.1829L208.981 44.7575C209.416 45.8104 209.945 46.7129 210.587 47.4038C213.894 50.9573 219.071 53.096 223.54 53.2558C223.1 50.3603 222.826 47.2534 223.176 45.049Z" fill="#F47458"/>
  <path d="M206.794 16.3346C206.373 16.1841 203.44 37.9515 209.014 43.9398C214.588 49.928 225.448 51.8881 229.345 47.1736C233.653 41.9562 233.436 18.5625 224.772 12.4004C216.104 6.23819 206.794 16.3346 206.794 16.3346Z" fill="#F7A491"/>
  <path d="M221.469 0.753442C214.77 2.11655 210.429 6.20582 208.837 7.94495C205.795 8.30218 201.662 9.98025 197.392 17.0402C192.144 25.7171 196.017 35.334 202.13 40.0484C208.242 44.7676 208.157 50.2153 208.157 50.2153L209.121 47.3951C209.834 45.2611 210.127 42.9955 209.886 40.7582C209.744 39.4139 209.456 37.9615 208.899 36.7676C207.43 33.6183 212.054 31.522 213.353 28.9039C214.35 26.8874 214.402 22.2669 215.975 18.9344L217.855 16.3868C217.855 16.3868 222.191 13.0167 226.433 13.9708C230.675 14.925 230.066 -0.995091 221.469 0.753442Z" fill="#181818"/>
  <path d="M213.068 32.7819C213.11 35.4376 211.901 37.6138 210.365 37.6373C208.829 37.6655 207.549 35.5316 207.502 32.8759C207.459 30.2202 208.669 28.0439 210.204 28.0204C211.745 27.9922 213.025 30.1262 213.068 32.7819Z" fill="#F7A491"/>
  <path d="M222.12 38.9153L230.523 38.4829C230.523 38.4829 230.495 41.6791 226.805 41.9752C222.304 42.3372 222.12 38.9153 222.12 38.9153Z" fill="white"/>
  <path d="M240.789 84.3078C238.829 70.7896 230.912 62.423 230.912 62.423C230.51 62.2866 229.891 62.1738 229.107 62.0798C232.452 66.3713 236.972 77.4077 238.03 80.7121C239.23 84.4676 240.709 104.566 240.709 104.566C236.849 106.743 218.861 106.484 218.861 106.484C218.861 106.484 216.755 88.5616 214.18 80.2185C211.606 71.8801 203.509 62.0798 203.509 62.0798C202.324 62.202 201.157 62.3619 200.014 62.5452C202.503 65.6145 210.373 75.8143 211.955 84.1245C213.84 94.0235 222.423 127.988 211.955 131.321C206.769 132.971 196.49 132.797 187.435 131.81C187.468 144.684 187.255 159.782 187.094 169.22L180.165 261.069L148.785 331.669C148.785 331.669 153.202 341.944 159.711 343.387L209.655 270.903L240.336 179.185C242.546 178.287 244.823 177.286 247.171 176.153C247.176 176.143 241.257 87.5229 240.789 84.3078Z" fill="#BF2424"/>
  <path d="M240.603 165.797C240.442 165.699 240.296 165.581 240.159 165.45C235.832 161.153 199.506 125.083 198.363 123.062C197.334 121.238 186.568 83.4377 186.568 83.4377L205.331 84.4577L214.056 119.485C215.175 121.022 236.885 148.787 236.885 148.787C236.885 148.787 240.73 153.985 243.187 156.914C244.094 157.233 244.963 157.525 245.686 157.75C247.301 158.145 248.794 158.267 250.083 158.329C251.708 158.404 254.93 158.968 255.648 159.297C256.479 159.677 258.171 160.524 259.177 161.041C260.188 161.562 261.392 162.131 261.893 162.469C262.2 162.676 263.003 162.846 263.589 162.949C264.458 163.104 264.694 164.246 263.948 164.712C263.244 165.153 262.063 164.98 261.331 164.867C259.262 164.552 256.352 162.916 256.319 163.231C256.286 163.546 260.013 167.786 260.405 168.298C260.802 168.81 265.1 173.76 265.615 174.996C266.13 176.232 265.445 176.749 264.732 176.453C264.118 176.199 257.665 169.793 257.665 169.793C257.665 169.793 256.838 168.98 256.801 169.595C256.763 170.211 262.606 176.035 263.315 177.064C264.023 178.094 264.009 179.114 262.833 179.024C261.397 178.916 255.544 172.321 255.544 172.321C255.544 172.321 254.798 171.508 254.58 171.931C254.363 172.354 259.422 177.229 259.659 177.891C259.899 178.554 259.484 179.396 258.426 179.095C257.178 178.742 252.001 172.806 252.001 172.806C252.001 172.806 251.482 172.467 251.453 172.82C251.43 173.172 255.44 177.633 255.487 178.446C255.525 179.128 254.911 179.17 254.911 179.17C253.626 179.546 250.324 174.672 248.137 172.914C245.95 171.156 244.33 168.162 241.496 166.347C241.321 166.244 240.882 165.971 240.603 165.797Z" fill="#F8A492"/>
  <path d="M193.088 114.084L215.355 107.428C215.355 107.428 211.945 88.2927 208.912 80.7016C200.443 59.503 184.476 64.2128 182.464 68.6264C177.958 78.5019 193.088 114.084 193.088 114.084Z" fill="white"/>
  <path d="M128.364 61.0775C128.364 63.7238 129.356 65.8718 130.585 65.8718C131.813 65.8718 132.806 63.7238 132.806 61.0775C132.806 58.4312 131.813 56.2831 130.585 56.2831C129.356 56.2831 128.364 58.4312 128.364 61.0775Z" fill="#F7A491"/>
  <path d="M57.641 336.396C59.0727 336.396 60.2304 334.911 60.2304 333.073V58.2429C60.2304 56.4097 59.068 54.9197 57.641 54.9197C56.2092 54.9197 55.0515 56.405 55.0515 58.2429V333.073C55.0515 334.906 56.2092 336.396 57.641 336.396Z" fill="#184655"/>
  <path d="M112.029 107.735C115.865 102.517 131.685 87.4103 133.442 87.4432C138.567 87.5325 155.384 87.5372 158.667 89.2011L158.511 117.963C157.977 120.379 146.366 157.977 147.041 166.212L146.961 166.287C137.23 175.636 121.888 174.903 112.988 164.661C112.988 164.661 113.026 153.253 111.656 142.851C109.507 126.55 102.506 120.689 112.029 107.735Z" fill="#CF2F2F"/>
  <path d="M148.434 92.637C148.174 94.0988 143.762 115.8 143.762 115.8C143.762 115.8 139.884 143.702 137.8 147.058C135.991 149.972 117.011 149.967 111.999 149.916C111.815 147.603 111.579 145.201 111.272 142.846C109.127 126.545 102.122 120.689 111.65 107.735C115.405 102.63 130.649 88.0401 132.93 87.4619C133.015 87.4478 133.058 87.4431 133.058 87.4431C133.058 87.4431 148.693 91.1752 148.434 92.637Z" fill="#F5F5F5"/>
  <path d="M138.596 71.2526C138.596 71.2526 138.152 81.8613 139.111 85.8848C140.07 89.9083 141.345 90.2139 133.126 91.436C129.895 91.9154 126.782 92.6345 126.782 92.6345C126.782 92.6345 127.628 86.7262 127.755 84.235C127.963 80.1269 126.806 67.4453 126.806 67.4453L138.596 71.2526Z" fill="#F7A491"/>
  <path d="M132.339 76.5323C130.648 77.4442 129.066 77.98 127.611 78.2009C127.332 73.1903 126.803 67.4418 126.803 67.4418L138.055 71.0751C136.751 73.2467 134.895 75.1598 132.339 76.5323Z" fill="#F47458"/>
  <path d="M123.168 166.761L142.526 303.786L160.155 366.968H179.333C179.333 366.968 174.883 316.068 165.341 298.033C165.341 298.033 161.175 249.713 157.009 220.162C156.385 215.744 159.47 204.28 158.667 201.318C152.483 178.54 147.037 166.211 147.037 166.211L123.168 166.761Z" fill="#BF2424"/>
  <path d="M135.14 226.005L130.657 278.645C130.657 278.645 135.234 308.727 132.093 328.685C128.951 348.642 124.785 366.964 124.785 366.964H107.156L103.651 267.561C103.651 267.561 96.8725 213.55 99.2202 198.903C101.568 184.257 112.981 164.661 112.981 164.661L140.714 165.921C140.714 165.921 148.234 192.732 146.963 201.733C146.023 208.417 135.14 226.005 135.14 226.005Z" fill="#CF2F2F"/>
  <path d="M49.0606 104.222C48.3001 103.413 48.2198 102.717 48.5646 102.158C48.9047 101.599 49.5897 101.26 49.6464 101.148C49.7078 101.035 49.5188 100.739 49.5188 100.739C49.0134 100.24 49.2732 99.3144 49.5991 98.9055C49.925 98.4966 50.8463 98.1675 51.2431 98.2333C51.6399 98.2991 51.7484 98.1488 51.7484 98.1488C51.8618 97.4766 53.3923 96.2075 54.1623 96.4049C54.9275 96.5976 57.4264 98.9102 57.7806 99.0089C58.1349 99.1076 58.8104 99.2204 59.1741 99.5495C59.5378 99.8785 63.024 101.472 63.5388 101.942C64.0585 102.407 64.7907 104.837 65.5182 106.05C66.2456 107.263 66.6093 109.796 66.7605 110.482C66.8502 110.887 68.0169 112.001 68.9711 112.851C69.7458 113.566 93.6999 132.499 100.549 139.084L111.367 114.976L128.797 118.012C129.005 117.904 117.12 154.807 105.76 156.297C93.1945 157.942 65.1733 122.572 62.3721 118.967C61.5124 118.309 60.6479 117.674 60.4637 117.613C60.0811 117.486 58.0877 116.081 57.9366 115.94C57.7854 115.799 56.869 115.531 56.4863 115.404C56.1037 115.277 52.6507 111.94 52.0697 111.418C51.4887 110.896 50.629 109.345 50.629 109.345L48.4182 107.018C46.7979 105.317 49.0606 104.222 49.0606 104.222Z" fill="#F8A492"/>
  <path d="M139.517 99.231C141.897 108.98 129.209 130.709 129.209 130.709C129.209 130.709 111.136 122.225 107.957 118.568C107.957 118.568 120.239 97.4825 121.042 96.1993C124.684 90.3943 129.635 90.3896 132.856 90.7656C135.445 91.0664 139.517 99.231 139.517 99.231Z" fill="white"/>
  <path d="M162.401 135.724C183.36 129.463 177.748 111.08 177.63 111.776C177.691 111.207 179.666 108.894 180.644 106.915C184.716 98.6709 179.345 88.7438 173.194 85.3125C177.271 74.8307 173.223 64.772 165.542 60.584C161.664 58.4688 158.404 55.4605 155.783 51.9823C149.968 44.2643 139.391 36.4899 126.675 39.0281C114.096 42.2291 130.936 49.4817 129.268 61.5287C128.423 67.6345 130.851 66.7602 134.644 71.6674C129.188 81.2091 132.343 97.228 140.709 104.49C136.609 121.684 141.016 142.112 162.401 135.724Z" fill="#FFE6BF"/>
  <path d="M146.83 51.6829C149.305 61.8451 135.904 69.22 125.294 69.4926C118.398 69.6665 115.228 68.9614 114.113 61.7323C112.304 50.0049 117.16 42.851 123.967 39.8944C132.748 36.0731 144.789 43.3022 146.83 51.6829Z" fill="#FFE6BF"/>
  <path d="M131.246 44.8475C131.246 44.8475 135.913 46.408 138.397 51.0942C140.882 55.7805 139.649 70.7888 129.304 75.7382C118.959 80.6877 114.202 69.4492 114.953 61.153C115.705 52.8616 118.699 42.0085 131.246 44.8475Z" fill="#F7A491"/>
  <path d="M124.782 67.9506L117.442 67.8378C117.442 67.8378 117.569 70.6674 120.796 70.8084C124.73 70.987 124.782 67.9506 124.782 67.9506Z" fill="white"/>
  <path d="M142.076 62.4548C143.607 54.6992 143.007 48.8191 137.47 45.9801C131.934 43.141 127.196 40.3255 122.241 45.4301L121.122 46.0599C121.122 46.0599 130.475 48.631 130.994 53.5758C131.519 58.5159 136.488 64.3913 135.723 66.8214C134.957 69.2515 134.074 74.0882 134.074 74.0882L136.124 72.4102C136.12 72.4102 140.546 70.2104 142.076 62.4548Z" fill="#FFE6BF"/>
  <path d="M132.436 59.4844C131.661 61.6278 132.247 63.7758 133.74 64.2882C135.234 64.8005 137.072 63.475 137.842 61.3363C138.612 59.1977 138.031 57.0449 136.538 56.5326C135.045 56.0202 133.207 57.341 132.436 59.4844Z" fill="#F7A491"/>
  <defs>
  <linearGradient id="paint0_linear_567:985" x1="373" y1="47" x2="-17.9999" y2="240" gradientUnits="userSpaceOnUse">
  <stop stop-color="#92DEFC"/>
  <stop offset="0.586911" stop-color="#6691FF"/>
  <stop offset="1" stop-color="#7A97FF"/>
  </linearGradient>
  </defs>
  </svg>
  