<svg width="320" height="247" viewBox="0 0 320 247" fill="none" xmlns="http://www.w3.org/2000/svg">
  <path d="M73 104C116.5 76.5 127 80 170.5 80C209.139 80 223.15 60.2744 264 55C293.242 51.2244 320 62 320 62V246.999H0V104C0 104 29.5 131.5 73 104Z" fill="url(#paint0_linear_1601:89)"/>
  <path d="M22.3881 229.614L23.5294 229.639C23.9996 225.826 24.8386 221.62 26.2637 217.23C31.6445 200.636 29.5238 198.424 38.1716 188.169C46.8194 177.914 47.9698 156.274 47.9698 156.274C47.9698 156.274 52.6112 131.765 48.8309 120.847C45.0546 109.924 45.0041 99.0885 35.4937 87.4144C35.4937 87.4144 33.2539 102.688 30.7548 109.594C28.2516 116.505 25.8756 123.106 27.2003 139.854C28.5204 156.602 29.5632 158.018 29.851 162.36C30.1389 166.701 29.0741 184.948 29.9328 187.98C30.7921 191.017 23.9119 211.755 23.2233 220.718C23.0156 223.417 22.688 226.482 22.3881 229.614Z" fill="#215E4B"/>
  <path d="M26.2218 225.997C27.4618 223.327 29.5971 220.695 33.255 219.171C42.8268 215.181 49.2144 215.417 53.8572 205.423C58.4994 195.424 58.8369 181.625 60.4281 178.797C60.4281 178.797 56.387 178.029 52.152 185.175C47.9169 192.321 45.0343 197.641 42.5841 201.797C40.1385 205.953 36.7824 204.694 33.8303 207.829C31.3557 210.453 28.9788 216.637 28.0567 219.783C27.7589 220.806 27.3314 221.785 26.7861 222.698C26.2875 223.529 25.6973 224.538 25.342 225.261C25.2627 225.423 25.1841 225.665 25.1004 225.979L26.2218 225.997Z" fill="#3C8F7C"/>
  <path d="M11.6688 226.24C10.8001 223.503 9.06076 220.697 5.70564 218.776C-3.06926 213.755 -9.28578 213.218 -12.5421 202.972C-15.7985 192.726 -14.4061 179.318 -15.5944 176.39C-15.5944 176.39 -11.5841 176.134 -8.36819 183.565C-5.15224 190.997 -3.02061 196.501 -1.16913 200.818C0.682341 205.135 4.08864 204.326 6.5598 207.716C8.63201 210.555 10.1624 216.832 10.6657 219.99C10.8301 221.016 11.1152 222.018 11.5366 222.968C11.9187 223.834 12.362 224.882 12.619 225.626C12.6732 225.789 12.7241 226.039 12.7634 226.347L11.6688 226.24Z" fill="#3C8F7C"/>
  <path d="M-9.2663 162.859C-10.4908 174.748 -2.84857 173.995 -2.72213 181.584C-2.59569 189.173 7.04007 202.239 11.4244 211.473C13.7046 216.276 14.4151 223.554 14.5708 229.433L18.2725 229.52C17.2029 214.621 11.3923 204.138 7.97463 195.76C3.57357 184.978 2.99163 180.087 7.16052 171.826C11.3294 163.565 6.02694 141.848 11.9005 132.355C17.7787 122.861 15.2556 107.693 14.0964 101.861C12.9419 96.0288 14.4665 92.1191 15.7791 86.0282C17.0917 79.9374 14.8452 70.9984 14.8452 70.9984C14.4508 78.5735 8.4006 88.8092 4.04245 95.3648C-0.315688 101.92 -8.68455 119.84 -7.95336 128.062C-7.22217 136.285 -7.7019 136.891 -7.7019 136.891C-10.9221 147.808 -8.04245 150.966 -9.2663 162.859Z" fill="#215E4B"/>
  <path d="M7.23182 168.181C6.79854 179.628 15.7072 184.167 15.3975 190.504C15.0878 196.841 16.9445 203.697 18.53 208.84C19.5315 212.095 18.717 221.079 18.3191 229.522L20.8214 229.577C21.6025 223.388 22.5131 214.449 22.3819 210.476C22.2037 205.054 24.7961 200.78 25.3343 191.348C25.8778 181.92 28.1018 173.457 24.1962 161.446C20.2906 149.436 21.4136 135.223 4.16759 121.67C4.16759 121.67 0.717397 135.521 2.86398 143.156C5.01526 150.789 7.66978 156.734 7.23182 168.181Z" fill="#3C8F7C"/>
  <path d="M7.23199 168.182C6.79871 179.629 15.7074 184.168 15.3977 190.505C15.088 196.842 16.9447 203.699 18.5301 208.841C19.5317 212.097 18.7172 221.081 18.3193 229.524L19.3557 229.548C19.5401 227.785 19.7037 226.679 19.7037 226.679L20.7404 205.342C20.7404 205.342 20.1129 188.609 18.5784 174.955C17.0438 161.3 4.16835 121.676 4.16835 121.676C4.16835 121.676 0.71816 135.527 2.86475 143.162C5.01542 150.791 7.66995 156.735 7.23199 168.182Z" fill="#327F6B"/>
  <path d="M20.5825 220.678L18.9063 220.641L-3.49344 220.128C-5.14096 220.092 -6.39162 221.597 -6.04849 223.202L1.82951 260.237C2.07679 261.39 3.0833 262.224 4.26269 262.248L17.884 262.56L19.5603 262.597L33.1817 262.909C34.3617 262.939 35.4087 262.151 35.711 261.013L45.3852 224.381C45.806 222.792 44.6258 221.232 42.9829 221.195L20.5825 220.678Z" fill="white"/>
  <path d="M276.805 183.578C276.645 183.479 276.493 183.362 276.361 183.23C272.034 178.934 235.709 142.863 234.566 140.842C233.536 139.018 222.775 101.218 222.775 101.218L241.538 102.238L250.263 137.265C251.382 138.802 273.097 166.567 273.097 166.567C273.097 166.567 276.942 171.766 279.399 174.694C280.31 175.014 281.175 175.305 281.897 175.531C283.513 175.926 285.006 176.048 286.295 176.109C287.92 176.184 291.142 176.748 291.86 177.077C292.691 177.458 294.382 178.304 295.388 178.821C296.394 179.338 297.604 179.912 298.104 180.25C298.411 180.457 299.215 180.626 299.8 180.729C300.669 180.885 300.906 182.027 300.159 182.492C299.455 182.934 298.275 182.76 297.542 182.647C295.473 182.332 292.564 180.697 292.531 181.011C292.497 181.326 296.22 185.566 296.617 186.078C297.013 186.591 301.312 191.54 301.827 192.776C302.342 194.013 301.657 194.53 300.943 194.234C300.329 193.98 293.877 187.573 293.877 187.573C293.877 187.573 293.05 186.76 293.012 187.376C292.97 187.991 298.818 193.815 299.526 194.845C300.235 195.874 300.221 196.894 299.044 196.805C297.608 196.697 291.756 190.102 291.756 190.102C291.756 190.102 291.009 189.289 290.792 189.712C290.575 190.135 295.634 195.009 295.87 195.672C296.111 196.335 295.695 197.181 294.637 196.88C293.39 196.527 288.213 190.591 288.213 190.591C288.213 190.591 287.693 190.252 287.665 190.605C287.637 190.957 291.652 195.418 291.694 196.231C291.732 196.913 291.118 196.955 291.118 196.955C289.833 197.331 286.531 192.457 284.344 190.699C282.157 188.941 280.537 185.947 277.703 184.132C277.528 184.024 277.084 183.752 276.805 183.578Z" fill="#F8A492"/>
  <path d="M229.118 132.128L251.381 125.472C251.381 125.472 247.97 106.337 244.938 98.7458C236.468 77.5472 220.502 82.257 218.489 86.6706C213.992 96.5508 229.118 132.128 229.118 132.128Z" fill="white"/>
  <path d="M240.746 105.306C241.209 108.521 247.076 197.147 247.076 197.147C206.901 216.691 187.345 199.393 187.345 199.393C187.345 199.393 188.658 138.025 187.085 129.673C186.041 124.145 184.742 87.4261 188.299 86.3967C192.862 85.0759 198.096 83.6752 203.797 83.0782C208.663 82.5706 227.577 82.2745 230.959 83.4167C230.959 83.4167 238.805 91.788 240.746 105.306Z" fill="white"/>
  <path d="M329.155 143.645L225.373 132.172L217.615 202.062L321.397 213.536L329.155 143.645Z" fill="#F7CC7F"/>
  <path opacity="0.6" d="M262.085 136.232L225.367 132.173L217.61 202.064L254.327 206.123L262.085 136.232Z" fill="#ED9B8E"/>
  <path d="M305.636 141.015L283.467 138.572L282.432 147.873L304.601 150.317L305.636 141.015Z" fill="#EFEFB4"/>
  <path d="M245.324 175.896C245.324 175.896 247.167 194.416 247.167 194.693C247.167 224.648 253.114 283.163 251.985 288.799C249.226 302.538 219.528 372.611 219.528 372.611L203.477 370.693L224.394 286.792L216.699 253.02L205.806 186.265L245.324 175.896Z" fill="#B31E1E"/>
  <path d="M209.223 64.1831L206.342 83.1631C206.342 83.1631 216.876 105.762 223.163 103.802C228.439 102.157 225.194 82.1619 225.194 82.1619C225.194 82.1619 222.317 71.4263 223.182 66.0491C224.046 60.6719 209.223 64.1831 209.223 64.1831Z" fill="#F7A491"/>
  <path d="M223.176 66.049C224.04 60.6765 209.222 64.1829 209.222 64.1829L208.981 65.7575C209.416 66.8104 209.945 67.7129 210.587 68.4038C213.894 71.9573 219.071 74.096 223.54 74.2558C223.1 71.3603 222.826 68.2534 223.176 66.049Z" fill="#F47458"/>
  <path d="M206.794 37.3346C206.373 37.1841 203.44 58.9515 209.014 64.9398C214.588 70.928 225.448 72.8881 229.345 68.1736C233.653 62.9562 233.436 39.5625 224.772 33.4004C216.104 27.2382 206.794 37.3346 206.794 37.3346Z" fill="#F7A491"/>
  <path d="M221.469 21.7534C214.77 23.1165 210.429 27.2058 208.837 28.945C205.795 29.3022 201.662 30.9803 197.392 38.0402C192.144 46.7171 196.017 56.334 202.13 61.0484C208.242 65.7676 208.157 71.2153 208.157 71.2153L209.121 68.3951C209.834 66.2611 210.127 63.9955 209.886 61.7582C209.744 60.4139 209.456 58.9615 208.899 57.7676C207.43 54.6183 212.054 52.522 213.353 49.9039C214.35 47.8874 214.402 43.2669 215.975 39.9344L217.855 37.3868C217.855 37.3868 222.191 34.0167 226.433 34.9708C230.675 35.925 230.066 20.0049 221.469 21.7534Z" fill="#181818"/>
  <path d="M213.068 53.7819C213.11 56.4376 211.901 58.6138 210.365 58.6373C208.829 58.6655 207.549 56.5316 207.502 53.8759C207.459 51.2202 208.669 49.0439 210.204 49.0204C211.745 48.9922 213.025 51.1262 213.068 53.7819Z" fill="#F7A491"/>
  <path d="M222.12 59.9153L230.523 59.4829C230.523 59.4829 230.495 62.6791 226.805 62.9752C222.304 63.3372 222.12 59.9153 222.12 59.9153Z" fill="white"/>
  <path d="M240.789 105.308C238.829 91.7896 230.912 83.423 230.912 83.423C230.51 83.2866 229.891 83.1738 229.107 83.0798C232.452 87.3713 236.972 98.4077 238.03 101.712C239.23 105.468 240.709 125.566 240.709 125.566C236.849 127.743 218.861 127.484 218.861 127.484C218.861 127.484 216.755 109.562 214.18 101.218C211.606 92.8801 203.509 83.0798 203.509 83.0798C202.324 83.202 201.157 83.3619 200.014 83.5452C202.503 86.6145 210.373 96.8143 211.955 105.125C213.84 115.023 222.423 148.988 211.955 152.321C206.769 153.971 196.49 153.797 187.435 152.81C187.468 165.684 187.255 180.782 187.094 190.22L180.165 282.069L148.785 352.669C148.785 352.669 153.202 362.944 159.711 364.387L209.655 291.903L240.336 200.185C242.546 199.287 244.823 198.286 247.171 197.153C247.176 197.143 241.257 108.523 240.789 105.308Z" fill="#BF2424"/>
  <path d="M240.603 186.797C240.442 186.699 240.296 186.581 240.159 186.45C235.832 182.153 199.506 146.083 198.363 144.062C197.334 142.238 186.568 104.438 186.568 104.438L205.331 105.458L214.056 140.485C215.175 142.022 236.885 169.787 236.885 169.787C236.885 169.787 240.73 174.985 243.187 177.914C244.094 178.233 244.963 178.525 245.686 178.75C247.301 179.145 248.794 179.267 250.083 179.329C251.708 179.404 254.93 179.968 255.648 180.297C256.479 180.677 258.171 181.524 259.177 182.041C260.188 182.562 261.392 183.131 261.893 183.469C262.2 183.676 263.003 183.846 263.589 183.949C264.458 184.104 264.694 185.246 263.948 185.712C263.244 186.153 262.063 185.98 261.331 185.867C259.262 185.552 256.352 183.916 256.319 184.231C256.286 184.546 260.013 188.786 260.405 189.298C260.802 189.81 265.1 194.76 265.615 195.996C266.13 197.232 265.445 197.749 264.732 197.453C264.118 197.199 257.665 190.793 257.665 190.793C257.665 190.793 256.838 189.98 256.801 190.595C256.763 191.211 262.606 197.035 263.315 198.064C264.023 199.094 264.009 200.114 262.833 200.024C261.397 199.916 255.544 193.321 255.544 193.321C255.544 193.321 254.798 192.508 254.58 192.931C254.363 193.354 259.422 198.229 259.659 198.891C259.899 199.554 259.484 200.396 258.426 200.095C257.178 199.742 252.001 193.806 252.001 193.806C252.001 193.806 251.482 193.467 251.453 193.82C251.43 194.172 255.44 198.633 255.487 199.446C255.525 200.128 254.911 200.17 254.911 200.17C253.626 200.546 250.324 195.672 248.137 193.914C245.95 192.156 244.33 189.162 241.496 187.347C241.321 187.244 240.882 186.971 240.603 186.797Z" fill="#F8A492"/>
  <path d="M193.088 135.084L215.355 128.428C215.355 128.428 211.945 109.293 208.912 101.702C200.443 80.503 184.476 85.2128 182.464 89.6264C177.958 99.5019 193.088 135.084 193.088 135.084Z" fill="white"/>
  <path d="M128.364 82.0775C128.364 84.7238 129.356 86.8718 130.585 86.8718C131.813 86.8718 132.806 84.7238 132.806 82.0775C132.806 79.4312 131.813 77.2831 130.585 77.2831C129.356 77.2831 128.364 79.4312 128.364 82.0775Z" fill="#F7A491"/>
  <path d="M57.641 357.396C59.0727 357.396 60.2304 355.911 60.2304 354.073V79.2429C60.2304 77.4097 59.068 75.9197 57.641 75.9197C56.2092 75.9197 55.0515 77.405 55.0515 79.2429V354.073C55.0515 355.906 56.2092 357.396 57.641 357.396Z" fill="#184655"/>
  <path d="M112.029 128.735C115.865 123.517 131.685 108.41 133.442 108.443C138.567 108.532 155.384 108.537 158.667 110.201L158.511 138.963C157.977 141.379 146.366 178.977 147.041 187.212L146.961 187.287C137.23 196.636 121.888 195.903 112.988 185.661C112.988 185.661 113.026 174.253 111.656 163.851C109.507 147.55 102.506 141.689 112.029 128.735Z" fill="#CF2F2F"/>
  <path d="M148.434 113.637C148.174 115.099 143.762 136.8 143.762 136.8C143.762 136.8 139.884 164.702 137.8 168.058C135.991 170.972 117.011 170.967 111.999 170.916C111.815 168.603 111.579 166.201 111.272 163.846C109.127 147.545 102.122 141.689 111.65 128.735C115.405 123.63 130.649 109.04 132.93 108.462C133.015 108.448 133.058 108.443 133.058 108.443C133.058 108.443 148.693 112.175 148.434 113.637Z" fill="#F5F5F5"/>
  <path d="M138.596 92.2526C138.596 92.2526 138.152 102.861 139.111 106.885C140.07 110.908 141.345 111.214 133.126 112.436C129.895 112.915 126.782 113.635 126.782 113.635C126.782 113.635 127.628 107.726 127.755 105.235C127.963 101.127 126.806 88.4453 126.806 88.4453L138.596 92.2526Z" fill="#F7A491"/>
  <path d="M132.339 97.5323C130.648 98.4442 129.066 98.98 127.611 99.2009C127.332 94.1903 126.803 88.4418 126.803 88.4418L138.055 92.0751C136.751 94.2467 134.895 96.1598 132.339 97.5323Z" fill="#F47458"/>
  <path d="M123.168 187.761L142.526 324.786L160.155 387.968H179.333C179.333 387.968 174.883 337.068 165.341 319.033C165.341 319.033 161.175 270.713 157.009 241.162C156.385 236.744 159.47 225.28 158.667 222.318C152.483 199.54 147.037 187.211 147.037 187.211L123.168 187.761Z" fill="#BF2424"/>
  <path d="M135.14 247.005L130.657 299.645C130.657 299.645 135.234 329.727 132.093 349.685C128.951 369.642 124.785 387.964 124.785 387.964H107.156L103.651 288.561C103.651 288.561 96.8725 234.55 99.2202 219.903C101.568 205.257 112.981 185.661 112.981 185.661L140.714 186.921C140.714 186.921 148.234 213.732 146.963 222.733C146.023 229.417 135.14 247.005 135.14 247.005Z" fill="#CF2F2F"/>
  <path d="M49.0606 125.222C48.3001 124.413 48.2198 123.717 48.5646 123.158C48.9047 122.599 49.5897 122.26 49.6464 122.148C49.7078 122.035 49.5188 121.739 49.5188 121.739C49.0134 121.24 49.2732 120.314 49.5991 119.906C49.925 119.497 50.8463 119.168 51.2431 119.233C51.6399 119.299 51.7484 119.149 51.7484 119.149C51.8618 118.477 53.3923 117.207 54.1623 117.405C54.9275 117.598 57.4264 119.91 57.7806 120.009C58.1349 120.108 58.8104 120.22 59.1741 120.549C59.5378 120.878 63.024 122.472 63.5388 122.942C64.0585 123.407 64.7907 125.837 65.5182 127.05C66.2456 128.263 66.6093 130.796 66.7605 131.482C66.8502 131.887 68.0169 133.001 68.9711 133.851C69.7458 134.566 93.6999 153.499 100.549 160.084L111.367 135.976L128.797 139.012C129.005 138.904 117.12 175.807 105.76 177.297C93.1945 178.942 65.1733 143.572 62.3721 139.967C61.5124 139.309 60.6479 138.674 60.4637 138.613C60.0811 138.486 58.0877 137.081 57.9366 136.94C57.7854 136.799 56.869 136.531 56.4863 136.404C56.1037 136.277 52.6507 132.94 52.0697 132.418C51.4887 131.896 50.629 130.345 50.629 130.345L48.4182 128.018C46.7979 126.317 49.0606 125.222 49.0606 125.222Z" fill="#F8A492"/>
  <path d="M139.517 120.231C141.897 129.98 129.209 151.709 129.209 151.709C129.209 151.709 111.136 143.225 107.957 139.568C107.957 139.568 120.239 118.482 121.042 117.199C124.684 111.394 129.635 111.39 132.856 111.766C135.445 112.066 139.517 120.231 139.517 120.231Z" fill="white"/>
  <path d="M162.401 156.724C183.36 150.463 177.748 132.08 177.63 132.776C177.691 132.207 179.666 129.894 180.644 127.915C184.716 119.671 179.345 109.744 173.194 106.313C177.271 95.8307 173.223 85.772 165.542 81.584C161.664 79.4688 158.404 76.4605 155.783 72.9823C149.968 65.2643 139.391 57.4899 126.675 60.0281C114.096 63.2291 130.936 70.4817 129.268 82.5287C128.423 88.6345 130.851 87.7602 134.644 92.6674C129.188 102.209 132.343 118.228 140.709 125.49C136.609 142.684 141.016 163.112 162.401 156.724Z" fill="#FFE6BF"/>
  <path d="M146.83 72.6829C149.305 82.8451 135.904 90.22 125.294 90.4926C118.398 90.6665 115.228 89.9614 114.113 82.7323C112.304 71.0049 117.16 63.851 123.967 60.8944C132.748 57.0731 144.789 64.3022 146.83 72.6829Z" fill="#FFE6BF"/>
  <path d="M131.246 65.8475C131.246 65.8475 135.913 67.408 138.397 72.0942C140.882 76.7805 139.649 91.7888 129.304 96.7382C118.959 101.688 114.202 90.4492 114.953 82.153C115.705 73.8616 118.699 63.0085 131.246 65.8475Z" fill="#F7A491"/>
  <path d="M124.782 88.9506L117.442 88.8378C117.442 88.8378 117.569 91.6674 120.796 91.8084C124.73 91.987 124.782 88.9506 124.782 88.9506Z" fill="white"/>
  <path d="M142.076 83.4548C143.607 75.6992 143.007 69.8191 137.47 66.9801C131.934 64.141 127.196 61.3255 122.241 66.4301L121.122 67.0599C121.122 67.0599 130.475 69.631 130.994 74.5758C131.519 79.5159 136.488 85.3913 135.723 87.8214C134.957 90.2515 134.074 95.0882 134.074 95.0882L136.124 93.4102C136.12 93.4102 140.546 91.2104 142.076 83.4548Z" fill="#FFE6BF"/>
  <path d="M132.436 80.4844C131.661 82.6278 132.247 84.7758 133.74 85.2882C135.234 85.8005 137.072 84.475 137.842 82.3363C138.612 80.1977 138.031 78.0449 136.538 77.5326C135.045 77.0202 133.207 78.341 132.436 80.4844Z" fill="#F7A491"/>
  <defs>
  <linearGradient id="paint0_linear_1601:89" x1="373" y1="68" x2="-17.9999" y2="261" gradientUnits="userSpaceOnUse">
  <stop stop-color="#92DEFC"/>
  <stop offset="0.586911" stop-color="#6691FF"/>
  <stop offset="1" stop-color="#7A97FF"/>
  </linearGradient>
  </defs>
  </svg>
  