<svg width="36" height="36" viewBox="0 0 36 36" fill="none" xmlns="http://www.w3.org/2000/svg">
  <rect width="36" height="36" rx="10" fill="white"/>
  <path d="M8.31 22.1C8.31 21.95 8.17 21.83 7.84 21.83C7.61 21.83 7.49 21.93 7.47 22.13L7.45 22.66L7.46 24.09C7.47 25.24 6.95 26.49 6.22 26.49C5.56 26.49 5.22 25.9 5.22 24.74C5.22 23.23 5.3 22.26 5.46 21.83C5.46 21.81 5.46 21.8 5.46 21.8C5.46 21.7 5.31 21.66 5.04 21.66C4.77 21.66 4.64 21.8 4.6 22.06C4.56 22.84 4.55 23.79 4.55 24.91C4.55 26.15 5.15 27.04 6.22 27.04C6.61 27.04 6.74 26.98 7.32 26.45C7.32 26.51 7.31 26.58 7.31 26.64C7.31 26.95 7.4 27.4 7.4 27.5C7.4 29.05 7.06 29.39 6.14 29.39C5.7 29.39 5.35 29.26 5.06 29L4.64 28.56C4.57 28.53 4.52 28.51 4.47 28.51C4.24 28.51 4.12 28.64 4.12 28.88C4.12 29.48 5.45 30.04 6.14 30.04C7.27 30.04 8 29.33 8 28.21L8.01 24.3C8 23.96 8.06 23.59 8.12 23.2L8.31 22.1ZM9.44938 19.98C9.44938 20.69 10.3794 21.5 10.3794 21.58C10.3794 21.73 8.90938 22.29 8.90938 24.93C8.90938 26.64 9.67938 27.41 10.9294 27.41C12.1294 27.41 12.8694 26.14 12.8694 24.6C12.8694 22.86 12.2594 22.1 11.4594 21.54C10.5594 20.9 10.1094 20.4 10.1094 19.91C10.1094 19.05 11.6594 19.03 11.9294 19.03C12.2294 19.03 12.2094 19.11 12.4994 19.11C12.7294 19.11 12.8694 19.05 12.8694 18.76C12.8694 18.58 12.7994 18.45 12.4594 18.45C11.3094 18.45 9.44938 18.64 9.44938 19.98ZM9.59938 24.94C9.59938 23.2 10.6294 21.93 10.8694 21.93C10.9294 21.93 11.0194 21.96 11.1294 22.04C11.7494 22.45 12.2094 23.16 12.2094 24.6C12.2094 25.95 11.6194 26.91 10.7994 26.91C10.0494 26.91 9.59938 26.24 9.59938 24.94ZM17.4692 24.54C17.4692 23.24 17.0492 22.34 16.1892 21.79C15.8892 21.6 15.6692 21.51 15.5092 21.51C14.4092 21.51 13.5092 23.25 13.5092 24.86C13.5092 26.44 14.1992 27.38 15.4392 27.38C16.6492 27.38 17.4692 26.1 17.4692 24.54ZM16.8692 24.53C16.8692 25.84 16.3092 26.89 15.4392 26.89C14.6392 26.89 14.1992 26.08 14.1992 24.83C14.1992 23.44 14.8392 22.2 15.6992 22.2C16.4392 22.2 16.8692 23.2 16.8692 24.53ZM21.8491 23.94C21.8491 22.6 21.2391 21.69 20.2391 21.69C19.9091 21.7 19.6091 21.84 19.3991 22.13L18.8291 22.91H18.7791C18.7791 22.58 18.8791 21.45 18.8791 21.1C18.8791 20.99 18.7991 20.94 18.6491 20.94C18.3491 20.94 18.1991 21.23 18.1991 21.8C18.1991 21.95 18.2291 22.54 18.2291 23.18C18.2291 23.41 18.0991 24.9 18.0991 25.91V29.09C18.0991 29.43 18.2591 30.21 18.3791 30.31C18.4591 30.38 18.5991 30.4 18.7991 30.4C18.9591 30.4 19.0491 30.34 19.0491 30.2C19.0591 30.16 18.9991 30.08 18.9391 29.91L18.8291 29.61C18.7091 29.16 18.6591 28.4 18.6591 27.31C18.6591 26.83 18.6891 26.56 18.7491 26.54C19.0891 26.96 19.4891 27.18 19.9491 27.18C21.1391 27.18 21.8491 25.91 21.8491 23.94ZM21.2391 23.99C21.2391 25.48 20.7091 26.8 19.9491 26.8C19.3591 26.8 19.1891 26.29 18.9291 25.93L18.7791 25.81C18.6991 25.75 18.6591 25.71 18.6591 25.69C18.6591 25.74 18.8491 24.2 18.9491 23.86C19.1891 23.08 19.9991 22.15 20.4091 22.15C20.9391 22.15 21.2391 22.88 21.2391 23.99ZM26.7543 27.3C26.7743 27.28 26.7943 27.25 26.7943 27.24C26.7943 27.19 25.9143 26.61 25.4143 26.04C24.8543 25.41 23.9743 24.46 23.9743 24.29C23.9743 24.09 24.3243 23.68 25.0443 23.05C25.6543 22.51 26.1243 22.14 26.4443 21.93C26.4543 21.9 26.4543 21.85 26.4543 21.79C26.4543 21.53 26.2943 21.34 26.0543 21.34C25.9643 21.34 25.6643 21.55 25.2143 22.06C24.5043 22.88 23.6043 23.63 23.2443 23.89C23.2043 23.89 23.1743 23.86 23.1743 23.83C23.1743 23.74 23.2243 23.39 23.2243 22.88C23.2243 22.13 23.3743 21.79 23.3743 21.74C23.3743 21.6 23.1543 21.5 23.0043 21.5C22.8043 21.5 22.4643 21.71 22.4643 21.88C22.4643 22.39 22.5743 22.45 22.5743 22.89C22.5743 23.46 22.5443 24.36 22.5443 26.39C22.5443 26.98 22.7043 27.15 23.0443 27.15C23.2043 27.15 23.3443 27.04 23.3443 26.94C23.3443 26.79 23.1943 26.45 23.1743 26.3C23.1643 26.11 23.1643 25.76 23.1643 25.41C23.1643 25.11 23.1643 24.76 23.4043 24.76C23.5643 24.86 23.7543 25.03 23.9743 25.26C24.1443 25.43 25.6943 27.55 26.2543 27.55C26.3643 27.55 26.5443 27.46 26.7543 27.3ZM31.0702 23.31C31.0502 22.43 30.0802 21.69 29.1102 21.69C28.5502 21.69 28.1702 22.05 27.8702 22.84C27.7302 23.19 27.6602 23.48 27.6602 23.71C27.6602 23.86 27.9202 24.13 28.0802 24.13C28.1502 24.13 28.1802 24.09 28.1802 24.03V23.89C28.1802 23.19 28.8202 22.24 29.4202 22.24C30.1302 22.24 30.4502 22.8 30.4502 24.21C30.4502 24.34 30.4202 24.43 30.3702 24.48H29.1302C28.4002 24.48 27.2202 25.29 27.2202 25.93C27.2202 26.58 28.1102 27.11 28.9102 27.11C29.4502 27.11 29.9602 26.94 30.4202 26.6C30.4502 26.65 30.4602 26.71 30.4602 26.8C30.4602 27.48 30.5002 27.54 30.8302 27.54C31.0202 27.54 31.1102 27.48 31.1102 27.36L31.0702 23.31ZM30.4502 25.38C30.4502 26.06 29.6602 26.6 28.9502 26.6C28.4202 26.6 28.0102 26.33 28.0102 25.91C28.0102 25.26 28.7302 24.88 29.6702 24.88C30.1802 24.88 30.4502 25.04 30.4502 25.38Z" fill="#DF0202"/>
  <path d="M11.72 7.64C11.72 7.16 11.132 6.92 9.98 6.92C9.452 6.92 8.6 6.98 7.448 7.112C6.044 7.28 5.312 7.46 5.204 7.628C5.324 7.94 5.588 8.108 5.984 8.108C6.284 8.108 7.292 7.892 7.592 7.892C7.712 7.892 7.772 7.976 7.784 8.12C7.784 8.036 7.772 7.976 7.772 7.976C7.88 7.976 7.532 11.492 7.484 12.32C7.448 12.896 7.424 13.736 7.424 14.852C7.424 16.796 7.688 17.252 8.504 17.252C8.612 17.252 8.66 17.18 8.66 17.048C8.384 16.592 8.252 15.728 8.252 14.432C8.252 12.692 8.348 11.06 8.54 9.536C8.84 7.928 8.588 7.736 9.308 7.736H9.98C11.504 7.736 11.36 8.012 11.468 8.012C11.624 8.012 11.72 7.892 11.72 7.64ZM17.8256 15.32C17.8256 14.576 16.3616 14.252 16.3616 14.18C16.3616 14.156 16.3856 14.12 16.4456 14.096C17.1656 13.736 17.5736 13.028 17.5736 12.476C17.5736 11.876 17.3456 11.516 16.7096 11.036C16.3016 10.748 15.9536 10.556 15.4736 10.556C14.2616 10.556 14.1656 11.396 13.6736 11.936C13.6736 11.612 13.7336 11.252 13.7336 11C13.7336 10.82 13.6736 10.748 13.3616 10.748C13.1096 10.748 12.7856 11.012 12.7856 11.216V14.06C12.7856 14.228 12.5696 14.252 12.5696 14.42C12.5696 14.588 12.8216 14.588 12.8216 14.816C12.8216 15.116 12.7856 15.572 12.7856 15.836C12.7856 16.016 12.4856 15.968 12.4856 16.268C12.4856 16.58 12.9296 16.496 12.9296 16.736C12.9296 17.132 13.0616 17.24 13.3136 17.24C13.5656 17.24 13.6496 17.12 13.6856 16.94C14.1896 17.036 14.6216 17.072 15.0056 17.072C15.9536 17.072 17.8256 16.688 17.8256 15.32ZM16.7216 12.428C16.7216 13.592 16.5656 14.012 13.7816 14.096C13.7096 14.096 13.6616 14.06 13.6616 13.988C13.6616 12.968 14.1056 11.276 15.4256 11.276C16.1696 11.276 16.7216 11.66 16.7216 12.428ZM16.8896 15.296C16.8896 15.836 16.4816 16.496 14.9816 16.496C14.5016 16.496 14.0816 16.388 13.6736 16.196C13.6616 15.848 13.6496 15.272 13.6496 14.84C13.6496 14.732 13.6856 14.696 13.7936 14.696C14.4536 14.648 14.7656 14.612 15.2096 14.612C16.7456 14.612 16.8896 14.876 16.8896 15.296ZM23.2373 14.048C23.2373 12.488 22.7333 11.408 21.7013 10.748C21.3413 10.52 21.0773 10.412 20.8853 10.412C19.5653 10.412 18.4853 12.5 18.4853 14.432C18.4853 16.328 19.3133 17.456 20.8013 17.456C22.2533 17.456 23.2373 15.92 23.2373 14.048ZM22.5173 14.036C22.5173 15.608 21.8453 16.868 20.8013 16.868C19.8413 16.868 19.3133 15.896 19.3133 14.396C19.3133 12.728 20.0813 11.24 21.1133 11.24C22.0013 11.24 22.5173 12.44 22.5173 14.036ZM23.6811 16.916C23.6811 17.132 23.8251 17.24 23.9931 17.24C24.2811 17.24 24.3411 16.94 24.5091 16.748C25.1331 15.968 26.1531 15.152 27.0651 14.996C27.5091 14.996 27.6291 15.032 27.6291 15.092C27.6291 16.292 27.2331 17 27.2331 17.012C27.2331 17.192 27.5331 17.228 27.6411 17.228C28.2051 17.228 28.3491 16.112 28.3491 15.092C28.3491 14.96 28.7931 15.008 28.7931 14.576C28.7931 14.408 28.7331 14.288 28.4811 14.18C28.4331 14.18 28.3011 12.152 28.3011 11.312C28.3011 11.072 28.7211 11.276 28.7211 10.976C28.7211 10.736 28.5531 10.628 28.3251 10.58C28.2891 10.46 28.1091 10.328 27.8811 10.328C27.7491 10.328 27.6051 10.508 27.4731 10.508C27.3051 10.508 27.0051 10.46 26.7651 10.46C25.4931 10.46 24.1491 11.54 24.1491 12.872C24.1491 14.18 25.0611 14.588 25.9851 14.792C25.3011 15.128 23.6811 16.076 23.6811 16.916ZM24.9891 12.8C25.0251 11.996 25.7091 11.06 26.7531 11.06C27.0051 11.06 27.2331 11.072 27.4011 11.108C27.5811 12.008 27.6891 13.052 27.6891 14.132C27.6891 14.18 27.6651 14.216 27.6291 14.228C27.2211 14.36 26.9931 14.396 26.8611 14.396C25.7331 14.228 24.9891 13.808 24.9891 12.8Z" fill="#DF0202"/>
  </svg>
  