<svg width="123" height="28" viewBox="0 0 123 28" fill="none" xmlns="http://www.w3.org/2000/svg">
  <path d="M12.6766 2.1094C12.6766 2.591 12.5111 2.83179 12.18 2.83179C12.219 2.83179 12.0048 2.72584 11.5375 2.51394C11.2454 2.35983 10.4957 2.28278 9.28839 2.28278H7.97397C7.50667 2.28278 7.21453 2.35983 7.09772 2.51394C6.98091 2.64879 6.88355 2.97627 6.80564 3.49639C6.74723 3.99725 6.6401 4.74854 6.48433 5.75026C6.11439 8.69761 5.92939 11.8472 5.92939 15.1991C5.92939 17.6841 6.19224 19.3601 6.718 20.227C6.718 20.4967 6.62064 20.6315 6.42592 20.6315C5.41336 20.6315 4.77076 20.0536 4.49814 18.8978C4.38131 18.4547 4.32289 17.4915 4.32289 16.0082C4.32289 13.8507 4.36184 12.2229 4.43973 11.1249C4.4592 10.6047 4.5663 9.39108 4.76102 7.48399C4.91683 5.96217 4.99469 4.74854 4.99469 3.84314C4.99469 2.7451 5.00441 2.47541 5.02391 3.03406C5.00441 2.74511 4.87786 2.60063 4.64419 2.60063C4.29368 2.60063 3.76793 2.66805 3.06692 2.8029C2.38538 2.93774 1.86936 3.00517 1.51886 3.00517C0.739953 3.00517 0.23367 2.69695 0 2.0805C0.194725 1.75302 1.64542 1.42554 4.3521 1.09805C6.61092 0.847626 8.25633 0.722412 9.28839 0.722412C11.5472 0.722412 12.6766 1.18474 12.6766 2.1094Z" fill="#FF0303" />
  <path d="M24.5996 16.9042C24.5996 17.5591 24.3952 18.1081 23.9862 18.5512C23.5968 18.975 23.11 19.3217 22.5258 19.5914C21.9611 19.8419 21.3672 20.0249 20.7441 20.1404C20.121 20.2368 19.5757 20.2849 19.1083 20.2849C18.349 20.2849 17.4922 20.1982 16.538 20.0249C16.4991 20.1982 16.4309 20.3331 16.3336 20.4294C16.2362 20.545 16.0609 20.6028 15.8078 20.6028C15.5546 20.6028 15.3599 20.5353 15.2236 20.4005C15.1068 20.2657 15.0484 20.0056 15.0484 19.6203C15.0484 19.5048 14.9997 19.4277 14.9023 19.3892C14.8244 19.3313 14.7271 19.2832 14.6102 19.2447C14.5129 19.1869 14.4155 19.1291 14.3182 19.0713C14.2402 18.9943 14.2013 18.8787 14.2013 18.7245C14.2013 18.5897 14.2305 18.4837 14.2889 18.4067C14.3473 18.3296 14.4155 18.2719 14.4934 18.2333C14.5713 18.1755 14.6394 18.1274 14.6978 18.0888C14.7563 18.0503 14.7855 17.9829 14.7855 17.8866C14.7855 17.6362 14.7952 17.3183 14.8147 16.933C14.8341 16.5478 14.8439 16.2106 14.8439 15.9217C14.8439 15.7098 14.7563 15.5749 14.581 15.5171C14.4252 15.4401 14.3473 15.3245 14.3473 15.1704C14.3473 15.0163 14.4155 14.9007 14.5518 14.8237C14.7076 14.7466 14.7855 14.631 14.7855 14.4769V8.98672C14.7855 8.79411 14.9023 8.60145 15.136 8.4088C15.3891 8.19693 15.6423 8.09097 15.8954 8.09097C16.207 8.09097 16.4017 8.12948 16.4796 8.20656C16.577 8.28358 16.6256 8.4088 16.6256 8.5822C16.6256 8.83263 16.6061 9.12156 16.5672 9.44906C16.5283 9.75726 16.5088 10.0655 16.5088 10.3737C16.7425 10.1233 16.9469 9.84396 17.1222 9.53577C17.2974 9.20827 17.5019 8.91933 17.7356 8.6689C17.9692 8.39917 18.2613 8.17767 18.6118 8.00427C18.9623 7.81166 19.4297 7.71533 20.0138 7.71533C20.5006 7.71533 20.9193 7.80203 21.2698 7.97539C21.6398 8.14874 22.0195 8.37028 22.4089 8.63997C23.0321 9.10231 23.4702 9.53577 23.7234 9.94029C23.9765 10.3256 24.1031 10.8168 24.1031 11.414C24.1031 11.9533 23.9084 12.5216 23.5189 13.1188C23.1489 13.716 22.6134 14.1879 21.9124 14.5347C21.7955 14.5925 21.7371 14.6503 21.7371 14.7081C21.7371 14.7658 21.7858 14.814 21.8832 14.8525C21.9805 14.8718 22.1169 14.9007 22.2921 14.9392C22.5842 15.0163 22.8666 15.1126 23.1392 15.2282C23.4118 15.3438 23.6552 15.4882 23.8694 15.6616C24.0836 15.8157 24.2588 15.9987 24.3952 16.2106C24.5315 16.4226 24.5996 16.6537 24.5996 16.9042ZM22.4382 11.3273C22.4382 10.5952 22.1948 10.0462 21.708 9.68024C21.2406 9.29497 20.6467 9.10231 19.9262 9.10231C19.4394 9.10231 18.9915 9.23715 18.5826 9.50683C18.1737 9.75726 17.8232 10.0848 17.5311 10.4893C17.239 10.8939 17.0054 11.3465 16.8301 11.8474C16.6548 12.3483 16.5477 12.8298 16.5088 13.2922C16.4893 13.4463 16.4796 13.6197 16.4796 13.8123C16.4796 13.9857 16.4796 14.159 16.4796 14.3324C16.4796 14.4673 16.5575 14.5347 16.7133 14.5347C18.0763 14.4962 19.1376 14.4191 19.897 14.3035C20.6564 14.1687 21.2212 13.9761 21.5911 13.7256C21.9805 13.4752 22.2142 13.1573 22.2921 12.7721C22.3895 12.3675 22.4382 11.8859 22.4382 11.3273ZM22.7595 16.8463C22.7595 16.6537 22.7303 16.4803 22.6718 16.3262C22.6134 16.1528 22.4673 16.0084 22.2337 15.8928C22.0195 15.7772 21.6982 15.6905 21.2698 15.6327C20.8414 15.5749 20.2475 15.5461 19.4881 15.5461C19.2739 15.5461 19.0694 15.5557 18.8747 15.5749C18.68 15.5749 18.4755 15.5846 18.2613 15.6038C18.0666 15.6038 17.8427 15.6135 17.5895 15.6327C17.3363 15.652 17.054 15.6713 16.7425 15.6905C16.5477 15.6905 16.4504 15.7869 16.4504 15.9795C16.4504 16.4033 16.4504 16.8656 16.4504 17.3664C16.4698 17.848 16.4893 18.2526 16.5088 18.5801C16.8982 18.7727 17.2974 18.9172 17.7063 19.0135C18.1347 19.1099 18.5826 19.158 19.0499 19.158C19.7704 19.158 20.3741 19.0905 20.8609 18.9557C21.3477 18.8016 21.7274 18.6186 22 18.4067C22.2726 18.1755 22.4673 17.9251 22.5842 17.6554C22.701 17.3857 22.7595 17.116 22.7595 16.8463Z" fill="#FF0303" />
  <path d="M35.1379 14.4478C35.1379 16.1045 34.7679 17.5493 34.028 18.7822C33.1517 20.2655 31.9347 21.0071 30.3769 21.0071C28.7996 21.0071 27.6215 20.4003 26.8426 19.1867C26.2 18.185 25.8787 16.8558 25.8787 15.1991C25.8787 13.5617 26.2487 11.9531 26.9886 10.3735C27.9233 8.4279 29.1111 7.45508 30.5521 7.45508C30.9221 7.45508 31.4478 7.66694 32.1294 8.09077C34.135 9.32365 35.1379 11.4427 35.1379 14.4478ZM33.7359 14.4189C33.7359 13.186 33.5703 12.0783 33.2393 11.0959C32.7525 9.72818 32.0028 9.04434 30.9902 9.04434C29.8219 9.04434 28.9067 9.80525 28.2446 11.3271C27.7383 12.5022 27.4852 13.7639 27.4852 15.1124C27.4852 16.326 27.6604 17.347 28.0109 18.1753C28.5172 19.3119 29.3059 19.8802 30.3769 19.8802C31.5452 19.8802 32.4312 19.2252 33.0349 17.9153C33.5022 16.8943 33.7359 15.7288 33.7359 14.4189Z" fill="#FF0303" />
  <path d="M35.9902 19.967C35.9902 19.5624 36.1557 19.1579 36.4867 18.7533C36.8372 18.3295 37.2461 17.9346 37.7135 17.5686C38.2003 17.2026 38.6968 16.8751 39.2031 16.5861C39.7289 16.278 40.1573 16.0468 40.4883 15.8926C40.0404 15.7964 39.5926 15.6711 39.1447 15.517C38.7163 15.3436 38.3366 15.1221 38.0056 14.8524C37.6745 14.5635 37.4019 14.2071 37.1877 13.7833C36.993 13.3595 36.8956 12.8297 36.8956 12.194C36.8956 11.5583 37.0417 10.9611 37.3338 10.4025C37.6453 9.82457 38.0348 9.32371 38.5021 8.89989C38.9889 8.4761 39.5342 8.1486 40.1378 7.91743C40.7609 7.66701 41.384 7.54179 42.0071 7.54179C42.2408 7.54179 42.4842 7.5611 42.7374 7.59961C43.01 7.61887 43.2242 7.62849 43.38 7.62849C43.5163 7.62849 43.6429 7.57073 43.7597 7.45514C43.896 7.33956 44.0323 7.28174 44.1686 7.28174C44.3828 7.28174 44.5678 7.33956 44.7236 7.45514C44.8988 7.55142 45.0059 7.65738 45.0449 7.77296C45.2591 7.81153 45.4343 7.88855 45.5706 8.00413C45.7264 8.11972 45.8043 8.29312 45.8043 8.52424C45.8043 8.67839 45.7556 8.77467 45.6583 8.81323C45.5804 8.85175 45.4927 8.88063 45.3954 8.89989C45.298 8.91919 45.2007 8.94807 45.1033 8.98659C45.0254 9.00584 44.9865 9.07329 44.9865 9.18887C44.9865 9.5934 44.9962 10.1135 45.0157 10.7493C45.0546 11.3657 45.0936 11.9725 45.1325 12.5696C45.1714 13.1476 45.2104 13.6484 45.2493 14.0722C45.2883 14.496 45.3175 14.7079 45.337 14.7079C45.5901 14.8043 45.7556 14.9198 45.8335 15.0547C45.9114 15.1703 45.9504 15.3051 45.9504 15.4592C45.9504 15.6711 45.9017 15.8349 45.8043 15.9504C45.7264 16.0468 45.6291 16.1238 45.5122 16.1816C45.3954 16.2394 45.2883 16.2876 45.1909 16.3261C45.113 16.3646 45.0741 16.4128 45.0741 16.4706C45.0741 17.1448 45.0157 17.8286 44.8988 18.5222C44.8015 19.1964 44.6749 19.7262 44.5191 20.1114C44.4412 20.2848 44.3244 20.4004 44.1686 20.4582C44.0323 20.5352 43.8765 20.5737 43.7013 20.5737C43.6039 20.5737 43.4481 20.5448 43.2339 20.4871C43.0198 20.4485 42.9126 20.3426 42.9126 20.1692C42.9126 20.0729 42.9613 19.9766 43.0587 19.8803C43.2145 19.6491 43.3507 19.2253 43.4676 18.6089C43.6039 17.9924 43.6721 17.2797 43.6721 16.4706C43.6721 16.4128 43.5942 16.3646 43.4384 16.3261C43.3021 16.2876 43.0198 16.2683 42.5914 16.2683C42.1435 16.3453 41.6859 16.4994 41.2185 16.7306C40.7707 16.9425 40.3228 17.2026 39.8749 17.5108C39.4465 17.819 39.0376 18.1561 38.6481 18.5222C38.2587 18.8882 37.9082 19.2638 37.5966 19.6491C37.4409 19.8417 37.3045 20.044 37.1877 20.2559C37.0709 20.4871 36.8761 20.6027 36.6036 20.6027C36.4478 20.6027 36.3017 20.5448 36.1654 20.4292C36.0486 20.333 35.9902 20.1788 35.9902 19.967ZM38.5313 12.0495C38.5313 13.0127 38.8624 13.7255 39.5244 14.1878C40.206 14.6501 41.0919 14.9584 42.1824 15.1125C42.3187 15.1125 42.5037 15.0932 42.7374 15.0547C42.9711 15.0161 43.2826 14.9295 43.6721 14.7946C43.75 14.7753 43.7889 14.7176 43.7889 14.6212C43.7889 13.581 43.7402 12.5696 43.6429 11.5872C43.5455 10.5855 43.4092 9.65122 43.2339 8.78435C42.9029 8.72653 42.4842 8.69765 41.978 8.69765C41.4717 8.69765 41.0044 8.8036 40.576 9.01547C40.167 9.20813 39.8165 9.46818 39.5244 9.79568C39.2324 10.1039 38.9987 10.4603 38.8234 10.8648C38.6481 11.2694 38.5508 11.6643 38.5313 12.0495Z" fill="#FF0303" />
  <path d="M59.0718 5.63465C59.5586 6.65562 59.9968 7.47434 60.3863 8.09078C60.7759 8.70722 61.1168 9.18882 61.4086 9.53557C61.7009 9.88228 61.9249 10.1135 62.0806 10.229C62.256 10.3446 62.363 10.4024 62.4018 10.4024C62.5772 10.4024 62.7231 10.3254 62.84 10.1713C63.4629 9.22733 64.0961 8.18711 64.7386 7.05051C65.3811 5.91396 66.0335 4.52698 66.6957 2.88956C66.929 2.29239 67.1333 1.81079 67.3087 1.44478C67.4841 1.07877 67.6398 0.809078 67.7763 0.635705C67.9321 0.443066 68.0878 0.317852 68.2435 0.260061C68.3992 0.20227 68.5844 0.173374 68.7986 0.173374C68.9931 0.173374 69.1685 0.221532 69.3242 0.317852C69.4799 0.41417 69.558 0.549018 69.558 0.722392C69.5384 0.915026 69.4509 1.14619 69.2952 1.41588C69.1587 1.66632 69.0516 1.87822 68.974 2.05159C68.6429 2.72582 68.2533 3.48674 67.8053 4.33434C67.377 5.18194 66.9192 6.04881 66.4323 6.93493C65.9652 7.8211 65.4784 8.71685 64.9719 9.62223C64.4851 10.5084 64.018 11.3463 63.57 12.1362C63.1416 12.9067 62.7521 13.6002 62.4018 14.2167C62.0511 14.8331 61.7785 15.3147 61.584 15.6615C61.1944 16.3357 60.7857 16.9714 60.3574 17.5685C59.9482 18.1465 59.51 18.6569 59.0428 19.1C58.5752 19.5238 58.0692 19.8609 57.524 20.1114C56.9984 20.3618 56.4138 20.487 55.7713 20.487C55.4795 20.487 55.1484 20.4484 54.7785 20.3714C54.4278 20.2944 54.0869 20.1788 53.7558 20.0247C53.4247 19.8706 53.1427 19.6683 52.9089 19.4179C52.6947 19.1674 52.5876 18.8785 52.5876 18.551C52.5876 18.2813 52.6751 18.0598 52.8505 17.8864C53.0258 17.6938 53.2302 17.5974 53.464 17.5974C53.7558 17.5974 54.0284 17.7515 54.2819 18.0598C54.5737 18.445 54.8173 18.6955 55.0118 18.811C55.2069 18.9266 55.4112 18.9844 55.6254 18.9844C55.9953 18.9844 56.3553 18.8977 56.7061 18.7243C57.0563 18.551 57.3874 18.3198 57.6993 18.0309C58.0299 17.7419 58.3419 17.4144 58.6337 17.0484C58.9259 16.6824 59.1986 16.3164 59.4515 15.9504C60.0165 15.1413 60.4738 14.4285 60.8245 13.8121C61.1944 13.1956 61.3796 12.7334 61.3796 12.4251C61.3796 12.3095 61.3501 12.1747 61.2917 12.0206C60.9606 11.4427 60.5519 10.7973 60.0651 10.0846C59.5979 9.35254 59.1111 8.60126 58.6047 7.83073C58.0982 7.06014 57.5923 6.29923 57.0858 5.54795C56.599 4.79668 56.1608 4.11281 55.7713 3.49637C55.3817 2.86067 55.0605 2.32128 54.8075 1.87822C54.5737 1.41588 54.4568 1.10766 54.4568 0.953557C54.4568 0.317852 54.7977 0 55.4795 0C55.6352 0 55.8592 0.0481589 56.151 0.144477C56.4624 0.221533 56.7547 0.337116 57.0273 0.491226C57.047 0.780184 57.1246 1.13656 57.2612 1.56036C57.4169 1.98416 57.5923 2.43686 57.7868 2.91846C57.9813 3.38079 58.1955 3.85275 58.4293 4.33434C58.6631 4.81594 58.8773 5.24939 59.0718 5.63465Z" fill="#FF0303" />
  <path d="M71.6485 3.90051C71.6485 3.12996 71.8819 2.51352 72.3495 2.05119C72.8363 1.58886 73.44 1.23248 74.1602 0.982052C74.8808 0.731625 75.6402 0.56788 76.4385 0.490827C77.2564 0.413772 78.006 0.375244 78.6878 0.375244C79.0773 0.375244 79.3303 0.442667 79.4472 0.577513C79.5833 0.71236 79.6516 0.885733 79.6516 1.09763C79.6516 1.42512 79.5735 1.64665 79.4177 1.76223C79.262 1.85855 79.0479 1.90671 78.7752 1.90671C78.5999 1.90671 78.4638 1.89708 78.3665 1.87782C78.2884 1.85855 78.2108 1.83929 78.1327 1.82002C78.0546 1.7815 77.9672 1.7526 77.8699 1.73334C77.7726 1.71408 77.6361 1.70444 77.4607 1.70444C77.305 1.70444 76.9935 1.72371 76.5264 1.76223C76.0587 1.7815 75.5719 1.85855 75.066 1.9934C74.5792 2.10898 74.141 2.31125 73.7515 2.60021C73.3816 2.8699 73.1964 3.25517 73.1964 3.75603C73.1964 4.31468 73.4592 4.90223 73.9848 5.51867C74.5109 6.11585 75.2993 6.78043 76.351 7.51246C76.8182 7.83996 77.2465 8.20597 77.6361 8.61049C78.0453 9.01502 78.3955 9.49662 78.6878 10.0553C78.9992 10.5947 79.2331 11.24 79.3888 11.9913C79.5641 12.7233 79.6516 13.5902 79.6516 14.5919C79.6516 15.478 79.5445 16.316 79.3303 17.1058C79.1353 17.8956 78.8337 18.5891 78.425 19.1863C78.0354 19.7642 77.5585 20.2266 76.9935 20.5733C76.4483 20.92 75.8254 21.0934 75.1239 21.0934C73.6635 21.0934 72.5052 20.6311 71.6485 19.7064C70.811 18.7818 70.3925 17.3273 70.3925 15.3432C70.3925 13.8213 70.5678 12.5788 70.9181 11.6157C71.288 10.6525 71.6873 9.89156 72.1157 9.33289C72.544 8.75496 72.9336 8.35044 73.2838 8.11927C73.6542 7.86884 73.8389 7.69549 73.8389 7.59916C73.8389 7.44506 73.722 7.28129 73.4887 7.10793C73.2548 6.91527 72.9532 6.59745 72.5828 6.15437C72.291 5.80761 72.0572 5.43197 71.8819 5.02744C71.7261 4.60364 71.6485 4.22799 71.6485 3.90051ZM71.9988 15.3721C71.9988 16.8746 72.2424 18.0112 72.7292 18.7818C73.2352 19.5523 73.9268 19.9376 74.8027 19.9376C75.2895 19.9376 75.7277 19.8124 76.1172 19.5619C76.5264 19.2922 76.8766 18.9166 77.1689 18.435C77.4607 17.9534 77.6847 17.3948 77.8404 16.759C78.0158 16.1041 78.1032 15.3817 78.1032 14.5919C78.1032 13.7635 78.0354 13.0315 77.8989 12.3958C77.782 11.7601 77.6071 11.2111 77.3733 10.7488C77.1591 10.2672 76.8963 9.86263 76.5848 9.53518C76.2729 9.18842 75.9418 8.89943 75.5916 8.66831C75.319 8.49491 75.1146 8.40821 74.9781 8.40821C74.842 8.40821 74.6082 8.58161 74.2771 8.92837C73.946 9.27512 73.6149 9.76635 73.2838 10.402C72.9532 11.0185 72.6511 11.7505 72.3785 12.5981C72.1255 13.4457 71.9988 14.3704 71.9988 15.3721Z" fill="#FF0303" />
  <path d="M90.4071 14.4478C90.4071 16.1045 90.0367 17.5493 89.297 18.7822C88.4206 20.2655 87.2038 21.0071 85.6462 21.0071C84.0688 21.0071 82.8904 20.4003 82.1118 19.1867C81.4693 18.185 81.148 16.8558 81.148 15.1991C81.148 13.5617 81.5179 11.9531 82.2577 10.3735C83.1925 8.4279 84.3803 7.45508 85.821 7.45508C86.1909 7.45508 86.717 7.66694 87.3984 8.09077C89.404 9.32365 90.4071 11.4427 90.4071 14.4478ZM89.0052 14.4189C89.0052 13.186 88.8396 12.0783 88.5085 11.0959C88.0217 9.72818 87.2721 9.04434 86.2592 9.04434C85.0911 9.04434 84.1759 9.80525 83.5138 11.3271C83.0073 12.5022 82.7543 13.7639 82.7543 15.1124C82.7543 16.326 82.9297 17.347 83.2799 18.1753C83.7864 19.3119 84.5748 19.8802 85.6462 19.8802C86.8143 19.8802 87.7005 19.2252 88.3037 17.9153C88.7713 16.8943 89.0052 15.7288 89.0052 14.4189Z" fill="#FF0303" />
  <path d="M100.635 13.0611C100.635 14.9683 100.352 16.5672 99.7881 17.8578C99.0286 19.6494 97.831 20.5451 96.1952 20.5451C95.1244 20.5451 94.1896 20.0539 93.3913 19.0714C93.2548 19.1293 93.187 19.7264 93.187 20.863C93.187 23.3673 93.3132 25.1396 93.5667 26.1798C93.5858 26.2761 93.6738 26.5073 93.8295 26.8733C94.0049 27.2393 94.0923 27.4608 94.0923 27.5379C94.0923 27.8461 93.8978 28.0002 93.5082 28.0002C93.0406 28.0002 92.7095 27.9328 92.515 27.7979C92.3396 27.6631 92.1839 27.22 92.0478 26.4688C91.9309 25.833 91.8724 25.3322 91.8724 24.9662V17.6267C91.8724 16.9524 91.9112 16.0471 91.9894 14.9105C92.067 13.5813 92.1156 12.6759 92.1352 12.1943C92.1549 11.6742 92.1549 11 92.1352 10.1716C92.1156 9.11209 92.1063 8.42825 92.1063 8.12001C92.1063 6.7908 92.4565 6.12622 93.1575 6.12622C93.5082 6.12622 93.6831 6.25143 93.6831 6.50186C93.6831 6.98346 93.6443 7.6866 93.5667 8.61123C93.4886 9.53592 93.4498 10.2294 93.4498 10.6917H93.5667C94.0142 10.0945 94.4622 9.48773 94.9102 8.87129C95.4358 8.19708 96.0881 7.85995 96.8672 7.85995C98.1719 7.85995 99.1549 8.43788 99.817 9.59368C100.362 10.5184 100.635 11.6742 100.635 13.0611ZM99.204 13.1767C99.204 12.1558 99.0969 11.2793 98.8827 10.5473C98.5516 9.46847 98.0157 8.92911 97.2759 8.92911C96.7307 8.92911 96.0685 9.40108 95.2899 10.345C94.6081 11.1733 94.1311 12.0209 93.8585 12.8878C93.6443 13.5427 93.4689 14.5059 93.3329 15.7773C93.2356 16.702 93.187 17.1451 93.187 17.1065C93.187 17.1644 93.2744 17.2606 93.4498 17.3955C93.5667 17.4726 93.6831 17.5593 93.8 17.6556C94.1119 18.0986 94.4234 18.5513 94.7348 19.0137C95.0659 19.4567 95.5527 19.6783 96.1952 19.6783C97.2661 19.6783 98.0742 18.8114 98.6194 17.0777C99.009 15.8448 99.204 14.5445 99.204 13.1767Z" fill="#FF0303" />
  <path d="M112.114 20.8335C111.608 21.2188 111.218 21.4114 110.946 21.4114C110.731 21.4114 110.459 21.2862 110.128 21.0358C109.797 20.8046 109.446 20.506 109.076 20.14C108.706 19.7548 108.326 19.3502 107.937 18.9264C107.548 18.4834 107.187 18.0692 106.856 17.6839C106.545 17.2794 106.272 16.9326 106.038 16.6437C105.824 16.3547 105.688 16.1813 105.629 16.1235C105.104 15.5842 104.656 15.1989 104.286 14.9677C104.013 14.9677 103.848 15.1314 103.789 15.4589C103.751 15.7864 103.731 16.1235 103.731 16.4703C103.731 16.8748 103.731 17.2698 103.731 17.655C103.731 18.021 103.741 18.31 103.76 18.5219C103.78 18.6952 103.848 18.9457 103.965 19.2732C104.082 19.5814 104.14 19.8222 104.14 19.9956C104.14 20.1112 104.072 20.2171 103.935 20.3134C103.799 20.429 103.634 20.4868 103.439 20.4868C103.05 20.4868 102.757 20.3616 102.563 20.1112C102.368 19.8607 102.27 19.3984 102.27 18.7241C102.27 17.5491 102.27 16.5377 102.27 15.6901C102.29 14.8233 102.299 14.072 102.299 13.4362C102.319 12.8005 102.329 12.2612 102.329 11.8181C102.349 11.3557 102.358 10.9608 102.358 10.6334C102.358 10.4215 102.358 10.2481 102.358 10.1132C102.358 9.97839 102.349 9.85318 102.329 9.73759C102.309 9.62201 102.29 9.50642 102.27 9.39084C102.251 9.2753 102.222 9.13078 102.183 8.95743C102.125 8.707 102.095 8.48546 102.095 8.29285C102.095 8.10019 102.241 7.90753 102.533 7.71492C102.845 7.52226 103.117 7.42593 103.351 7.42593C103.527 7.42593 103.711 7.48375 103.906 7.59934C104.12 7.69567 104.228 7.82088 104.228 7.97498C104.228 8.03274 104.169 8.27354 104.052 8.69737C103.935 9.1019 103.877 9.73759 103.877 10.6045C103.877 11.2016 103.858 11.6929 103.818 12.0781C103.78 12.4634 103.76 12.7042 103.76 12.8005C103.76 12.8969 103.809 12.945 103.906 12.945C104.12 12.7909 104.403 12.579 104.753 12.3093C105.104 12.0204 105.484 11.6929 105.892 11.3269C106.321 10.9416 106.759 10.5274 107.207 10.0843C107.674 9.64131 108.112 9.1886 108.521 8.72626C109.047 8.12907 109.475 7.70529 109.806 7.45487C110.157 7.18518 110.381 7.05029 110.478 7.05029C110.75 7.05029 110.974 7.14662 111.15 7.33928C111.325 7.53189 111.413 7.78232 111.413 8.09056C111.413 8.24466 111.403 8.35062 111.384 8.40838C111.014 8.65881 110.556 9.00557 110.011 9.44865C109.465 9.87243 108.833 10.3926 108.112 11.009C106.457 12.4538 105.629 13.4073 105.629 13.8697C105.629 13.966 105.737 14.1683 105.951 14.4765C106.185 14.7654 106.467 15.1122 106.798 15.5167C107.148 15.902 107.518 16.3066 107.908 16.7303C108.297 17.1542 108.657 17.5491 108.988 17.9151C109.592 18.5893 110.157 19.1383 110.683 19.5621C111.208 19.9859 111.685 20.3038 112.114 20.5157C112.172 20.5542 112.202 20.612 112.202 20.689C112.202 20.7276 112.172 20.7757 112.114 20.8335Z" fill="#FF0303" />
  <path d="M122.316 20.9782C122.316 21.2479 122.101 21.3828 121.673 21.3828C121.206 21.3828 120.923 21.1902 120.826 20.8048C120.807 20.7471 120.797 20.3714 120.797 19.6779C120.797 19.4853 120.768 19.3312 120.709 19.2156C119.619 20.0054 118.441 20.4003 117.175 20.4003C116.299 20.4003 115.452 20.1595 114.634 19.6779C113.699 19.1386 113.232 18.4643 113.232 17.6553C113.232 16.8654 113.786 16.0949 114.897 15.3436C115.909 14.6501 116.844 14.3033 117.701 14.3033H120.592C120.709 14.1878 120.768 13.9855 120.768 13.6965C120.768 12.4059 120.661 11.433 120.447 10.7781C120.096 9.68005 119.405 9.13101 118.373 9.13101C117.632 9.13101 116.951 9.59335 116.328 10.518C115.763 11.3656 115.481 12.1747 115.481 12.9452C115.481 12.9838 115.481 13.0416 115.481 13.1186C115.481 13.1957 115.481 13.2438 115.481 13.2631C115.481 13.4172 115.403 13.4943 115.247 13.4943C115.052 13.4943 114.838 13.3787 114.604 13.1475C114.371 12.9163 114.254 12.7141 114.254 12.5407C114.254 12.0013 114.42 11.3271 114.751 10.518C115.082 9.68968 115.442 9.06361 115.831 8.63978C116.318 8.11967 116.922 7.85962 117.642 7.85962C118.752 7.85962 119.775 8.20638 120.709 8.89984C121.702 9.65117 122.209 10.5565 122.228 11.6161L122.316 20.9782ZM120.768 16.3838C120.768 15.6133 120.164 15.228 118.957 15.228C118.003 15.228 117.165 15.3917 116.444 15.7192C115.529 16.143 115.072 16.7788 115.072 17.6263C115.072 18.1465 115.315 18.551 115.802 18.8399C116.211 19.0904 116.698 19.2156 117.262 19.2156C118.1 19.2156 118.888 18.9459 119.629 18.4065C120.388 17.8671 120.768 17.1929 120.768 16.3838Z" fill="#FF0303" />
</svg>
  