<svg width="250" height="55" viewBox="0 0 250 55" fill="none" xmlns="http://www.w3.org/2000/svg">
  <path d="M1.12 21H3.248V12.936H7.364C10.696 12.936 13.384 10.22 13.384 6.888C13.384 3.556 10.696 0.867999 7.364 0.867999H1.12V21ZM3.248 2.828H7.084C9.352 2.828 11.172 4.62 11.172 6.888C11.172 9.156 9.352 10.976 7.084 10.976H3.248V2.828ZM27.5977 6.384V8.904C26.4217 7.28 24.3497 5.964 21.8857 5.964C17.6017 5.964 14.1017 9.38 14.1017 13.608C14.1017 17.92 17.6017 21.42 21.8857 21.42C24.2377 21.42 26.5057 20.104 27.5977 18.368V21H29.5577V6.384H27.5977ZM21.8857 19.46C18.4697 19.46 16.1737 16.912 16.1737 13.636C16.1737 10.472 18.7217 7.924 21.8857 7.924C25.0497 7.924 27.5977 10.472 27.5977 13.636C27.5977 16.856 25.0497 19.46 21.8857 19.46ZM39.447 19.46C36.031 19.46 33.735 16.912 33.735 13.636C33.735 10.472 36.283 7.924 39.447 7.924C42.611 7.924 45.159 10.472 45.159 13.636C45.159 16.856 42.611 19.46 39.447 19.46ZM33.735 6.384C33.735 3.864 35.527 2.828 37.515 2.828H45.159V0.867999H37.543C33.679 0.867999 31.523 3.276 31.523 6.692V13.664C31.523 18.144 35.079 21.42 39.587 21.42C43.871 21.42 47.371 17.92 47.371 13.636C47.371 9.408 43.899 5.964 39.587 5.964C37.123 5.964 34.575 7.308 33.735 8.988V6.384ZM56.8011 21.42C61.0851 21.42 64.5851 17.92 64.5851 13.636C64.5851 9.408 61.1131 5.964 56.8011 5.964C52.5171 5.964 49.0171 9.436 49.0171 13.636C49.0171 17.976 52.5171 21.42 56.8011 21.42ZM56.8011 19.46C53.3851 19.46 51.0891 16.912 51.0891 13.636C51.0891 10.472 53.6371 7.924 56.8011 7.924C59.9651 7.924 62.5131 10.472 62.5131 13.636C62.5131 16.856 59.9651 19.46 56.8011 19.46ZM69.6448 21H71.6048V8.176H76.1128V6.384H65.1368V8.176H69.6448V21ZM89.9141 6.384V8.904C88.7381 7.28 86.6661 5.964 84.2021 5.964C79.9181 5.964 76.4181 9.38 76.4181 13.608C76.4181 17.92 79.9181 21.42 84.2021 21.42C86.5541 21.42 88.8221 20.104 89.9141 18.368V21H91.8741V6.384H89.9141ZM84.2021 19.46C80.7861 19.46 78.4901 16.912 78.4901 13.636C78.4901 10.472 81.0381 7.924 84.2021 7.924C87.3661 7.924 89.9141 10.472 89.9141 13.636C89.9141 16.856 87.3661 19.46 84.2021 19.46ZM95.6594 12.432C96.0794 9.884 98.6274 7.924 101.343 7.924C104.171 7.924 106.719 9.884 107.055 12.432H95.6594ZM106.747 16.156C105.907 18.284 103.807 19.46 101.371 19.46C98.4594 19.46 95.9114 17.108 95.6594 14.224H109.155V13.44C109.155 9.324 105.655 5.964 101.343 5.964C97.0594 5.964 93.5594 9.436 93.5594 13.636C93.5594 17.976 97.0594 21.42 101.343 21.42C104.927 21.42 107.671 19.46 108.791 16.156H106.747ZM117.34 21H119.524L123.864 10.696V21H125.824V6.384H123.64L118.432 18.564L113.224 6.384H111.04V21H113V10.696L117.34 21ZM136.851 21H142.675C145.363 21 147.687 19.152 147.687 16.856C147.687 15.12 146.455 13.496 144.915 13.244C145.951 12.88 146.791 11.368 146.791 9.856C146.791 7.952 144.803 6.384 142.507 6.384H136.851V21ZM138.811 14.224H142.675C144.215 14.224 145.475 15.316 145.475 16.772C145.475 18.116 144.215 19.208 142.675 19.208H138.811V14.224ZM138.811 8.176H142.535C143.739 8.176 144.719 9.044 144.719 10.136C144.719 11.396 143.739 12.432 142.535 12.432H138.811V8.176ZM156.879 21.42C161.163 21.42 164.663 17.92 164.663 13.636C164.663 9.408 161.191 5.964 156.879 5.964C152.595 5.964 149.095 9.436 149.095 13.636C149.095 17.976 152.595 21.42 156.879 21.42ZM156.879 19.46C153.463 19.46 151.167 16.912 151.167 13.636C151.167 10.472 153.715 7.924 156.879 7.924C160.043 7.924 162.591 10.472 162.591 13.636C162.591 16.856 160.043 19.46 156.879 19.46ZM183.631 19.46C180.215 19.46 177.919 16.912 177.919 13.636C177.919 10.472 180.467 7.924 183.631 7.924C186.795 7.924 189.343 10.472 189.343 13.636C189.343 16.856 186.795 19.46 183.631 19.46ZM177.919 6.384C177.919 3.864 179.711 2.828 181.699 2.828H189.343V0.867999H181.727C177.863 0.867999 175.707 3.276 175.707 6.692V13.664C175.707 18.144 179.263 21.42 183.771 21.42C188.055 21.42 191.555 17.92 191.555 13.636C191.555 9.408 188.083 5.964 183.771 5.964C181.307 5.964 178.759 7.308 177.919 8.988V6.384ZM198.605 6.384L192.473 21H194.685L199.781 8.82L204.821 21H207.033L200.901 6.384H198.605ZM221.438 6.384V8.904C220.262 7.28 218.19 5.964 215.726 5.964C211.442 5.964 207.942 9.38 207.942 13.608C207.942 17.92 211.442 21.42 215.726 21.42C218.078 21.42 220.346 20.104 221.438 18.368V21H223.398V6.384H221.438ZM215.726 19.46C212.31 19.46 210.014 16.912 210.014 13.636C210.014 10.472 212.562 7.924 215.726 7.924C218.89 7.924 221.438 10.472 221.438 13.636C221.438 16.856 218.89 19.46 215.726 19.46ZM225.419 21H227.379V8.176H233.427V6.384H225.419V21ZM241.453 21.42C245.737 21.42 249.237 17.92 249.237 13.636C249.237 9.408 245.765 5.964 241.453 5.964C237.169 5.964 233.669 9.436 233.669 13.636C233.669 17.976 237.169 21.42 241.453 21.42ZM241.453 19.46C238.037 19.46 235.741 16.912 235.741 13.636C235.741 10.472 238.289 7.924 241.453 7.924C244.617 7.924 247.165 10.472 247.165 13.636C247.165 16.856 244.617 19.46 241.453 19.46ZM0.588 34.384V36.624C0.588 41.048 3.696 43.344 7.616 43.344H10.472V49H12.432V34.384H10.472V41.552H7.616C4.788 41.552 2.548 40.152 2.548 36.624V34.384H0.588ZM14.4344 49H16.3664L25.4944 36.96V49H27.4544V34.384H25.4944L16.3944 46.256V34.384H14.4344V49ZM36.9488 47.46C33.5328 47.46 31.2368 44.912 31.2368 41.636C31.2368 38.472 33.7848 35.924 36.9488 35.924C38.8248 35.924 40.8968 37.072 41.7088 38.528H44.0608C43.1088 35.924 40.0568 33.964 36.9488 33.964C32.6648 33.964 29.1648 37.436 29.1648 41.636C29.1648 45.976 32.6648 49.42 36.9488 49.42C40.0848 49.42 43.3048 47.236 44.1448 44.548H41.9328C41.1208 46.144 38.8808 47.46 36.9488 47.46ZM49.219 49H51.179V36.176H55.687V34.384H44.711V36.176H49.219V49ZM63.6643 49.42C67.9483 49.42 71.4483 45.92 71.4483 41.636C71.4483 37.408 67.9763 33.964 63.6643 33.964C59.3803 33.964 55.8803 37.436 55.8803 41.636C55.8803 45.976 59.3803 49.42 63.6643 49.42ZM63.6643 47.46C60.2483 47.46 57.9523 44.912 57.9523 41.636C57.9523 38.472 60.5003 35.924 63.6643 35.924C66.8283 35.924 69.3763 38.472 69.3763 41.636C69.3763 44.856 66.8283 47.46 63.6643 47.46ZM76.508 49H78.468V36.176H82.976V34.384H72V36.176H76.508V49ZM84.1883 49H90.0963C92.5323 49 94.5203 47.068 94.5203 44.66C94.5203 42.224 92.5323 40.236 90.0963 40.236H86.1483V34.384H84.1883V49ZM86.1483 42.028H89.7603C91.2443 42.028 92.4483 43.176 92.4483 44.604C92.4483 46.032 91.2443 47.208 89.7603 47.208H86.1483V42.028ZM95.3603 49H97.3203V34.384H95.3603V49ZM108.333 49H110.265L119.393 36.96V49H121.353V34.384H119.393L110.293 46.256V34.384H108.333V49ZM132.368 49H134.328V36.176H143.428V49H145.388V34.384H132.368V49ZM155.047 49.42C159.331 49.42 162.831 45.92 162.831 41.636C162.831 37.408 159.359 33.964 155.047 33.964C150.763 33.964 147.263 37.436 147.263 41.636C147.263 45.976 150.763 49.42 155.047 49.42ZM155.047 47.46C151.631 47.46 149.335 44.912 149.335 41.636C149.335 38.472 151.883 35.924 155.047 35.924C158.211 35.924 160.759 38.472 160.759 41.636C160.759 44.856 158.211 47.46 155.047 47.46ZM166.866 34.384H164.906V54.124H166.866V46.368C167.958 48.104 170.226 49.42 172.578 49.42C176.862 49.42 180.362 45.92 180.362 41.608C180.362 37.38 176.862 33.964 172.578 33.964C170.114 33.964 168.042 35.28 166.866 36.904V34.384ZM172.578 47.46C169.162 47.46 166.866 44.912 166.866 41.636C166.866 38.472 169.414 35.924 172.578 35.924C175.742 35.924 178.29 38.472 178.29 41.636C178.29 44.856 175.742 47.46 172.578 47.46ZM192.799 49V34.384H187.003C184.147 34.384 181.823 36.456 181.823 39.004C181.823 41.552 183.895 43.176 186.191 43.54L181.823 49H184.147L189.579 41.748H187.031C185.183 41.748 183.895 40.544 183.895 39.004C183.895 37.436 185.295 36.176 187.031 36.176H190.839V49H192.799ZM208.315 34.384V36.904C207.139 35.28 205.067 33.964 202.603 33.964C198.319 33.964 194.819 37.38 194.819 41.608C194.819 45.92 198.319 49.42 202.603 49.42C204.955 49.42 207.223 48.104 208.315 46.368V47.46C208.315 50.288 205.907 52.584 202.939 52.584C200.279 52.584 198.011 51.156 197.619 49.42H195.323C196.163 52.248 199.579 54.544 202.939 54.544C206.999 54.544 210.275 51.38 210.275 47.46V34.384H208.315ZM202.603 47.46C199.187 47.46 196.891 44.912 196.891 41.636C196.891 38.472 199.439 35.924 202.603 35.924C205.767 35.924 208.315 38.472 208.315 41.636C208.315 44.856 205.767 47.46 202.603 47.46ZM212.157 49H214.117V45.584L216.105 42.98L221.117 49H223.665L217.309 41.552L223.021 34.384H220.529L214.117 42.868V29.372H212.157V49ZM237.926 34.384V36.904C236.75 35.28 234.678 33.964 232.214 33.964C227.93 33.964 224.43 37.38 224.43 41.608C224.43 45.92 227.93 49.42 232.214 49.42C234.566 49.42 236.834 48.104 237.926 46.368V49H239.886V34.384H237.926ZM232.214 47.46C228.798 47.46 226.502 44.912 226.502 41.636C226.502 38.472 229.05 35.924 232.214 35.924C235.378 35.924 237.926 38.472 237.926 41.636C237.926 44.856 235.378 47.46 232.214 47.46ZM244.119 29.372H241.991V43.876H244.119V29.372ZM241.991 45.444V49H244.119V45.444H241.991Z" fill="black" />
</svg>
  